<?xml version="1.0" standalone="no"?>
<!DOCTYPE svg PUBLIC "-//W3C//DTD SVG 20010904//EN"
 "http://www.w3.org/TR/2001/REC-SVG-20010904/DTD/svg10.dtd">
<svg version="1.0" xmlns="http://www.w3.org/2000/svg"
 width="267.000000pt" height="267.000000pt" viewBox="0 0 267.000000 267.000000"
 preserveAspectRatio="xMidYMid meet">
<metadata>
Created by potrace 1.14, written by Peter Selinger 2001-2017
</metadata>
<g transform="translate(0.000000,267.000000) scale(0.100000,-0.100000)"
fill="#000000" stroke="none">
<path d="M1157 1986 l-148 -444 -40 -7 c-33 -6 -39 -11 -39 -31 0 -24 0 -24
115 -24 114 0 115 0 115 24 0 20 -6 24 -41 30 -26 4 -39 11 -36 19 2 6 17 51
33 100 l28 87 126 0 126 0 28 -87 c16 -49 31 -93 33 -100 3 -6 -10 -14 -29
-18 -36 -8 -49 -21 -41 -42 4 -10 44 -13 184 -13 l179 0 0 24 c0 22 -6 26 -44
31 l-44 7 -72 211 c-241 707 -230 677 -259 677 -26 0 -29 -8 -174 -444z m167
-23 c25 -78 46 -147 46 -152 0 -7 -37 -11 -104 -11 l-104 0 52 159 c28 88 54
157 57 153 4 -4 28 -71 53 -149z"/>
<path d="M132 2373 c3 -26 7 -28 51 -31 l47 -3 0 -399 0 -399 -47 -3 c-44 -3
-48 -5 -51 -31 l-3 -29 253 4 c295 4 327 12 423 100 99 90 143 226 132 404
-14 205 -89 324 -246 386 -52 21 -75 23 -309 26 l-253 4 3 -29z m469 -64 c62
-34 103 -94 124 -178 22 -92 17 -319 -9 -396 -41 -119 -118 -183 -230 -192
l-66 -6 0 403 0 403 69 -5 c46 -4 82 -13 112 -29z"/>
<path d="M1752 2373 c3 -26 7 -28 51 -31 l47 -3 0 -308 c0 -169 3 -349 6 -399
l7 -91 -49 -3 c-45 -3 -49 -5 -52 -30 l-3 -28 131 0 131 0 -3 28 c-3 25 -7 27
-50 30 l-48 3 0 272 1 272 20 -25 c12 -14 125 -152 252 -307 219 -269 233
-283 265 -283 l33 0 -3 435 -3 434 45 3 c41 3 45 6 48 31 l3 27 -131 0 -131 0
3 -27 c3 -26 7 -28 51 -31 l47 -3 0 -277 c0 -231 -2 -274 -13 -262 -8 8 -121
147 -252 308 l-238 292 -84 0 -84 0 3 -27z"/>
<path d="M1072 1143 c-6 -15 -73 -215 -148 -445 l-138 -416 -38 -6 c-24 -4
-38 -12 -38 -21 0 -12 18 -15 100 -15 79 0 100 3 100 14 0 9 -15 17 -40 21
-22 4 -40 7 -40 8 0 1 15 49 34 107 l33 105 139 0 138 0 27 -85 c14 -47 29
-95 33 -107 6 -19 2 -22 -34 -28 -25 -4 -40 -12 -40 -21 0 -11 30 -14 170 -14
137 0 170 3 170 14 0 7 -18 17 -42 22 l-41 9 -151 440 c-155 452 -169 482
-194 418z m26 -601 c-31 -2 -86 -2 -122 0 l-64 3 61 189 62 189 60 -189 61
-189 -58 -3z"/>
<path d="M142 1123 c2 -14 15 -19 51 -21 l47 -3 0 -409 0 -409 -47 -3 c-36 -2
-49 -7 -51 -20 -3 -17 11 -18 193 -18 182 0 196 1 193 18 -2 13 -15 18 -61 20
l-57 3 0 194 0 195 40 0 c79 0 120 -44 120 -127 0 -16 6 -23 20 -23 19 0 20 7
20 175 0 168 -1 175 -20 175 -16 0 -20 -7 -20 -30 0 -41 -24 -96 -47 -108 -10
-5 -39 -13 -65 -16 l-48 -7 0 195 0 196 77 0 c134 0 197 -53 211 -176 4 -39 7
-44 30 -44 24 0 25 1 18 53 -3 28 -6 87 -6 130 l0 77 -301 0 c-281 0 -300 -1
-297 -17z"/>
<path d="M1532 1123 c2 -14 15 -19 51 -21 l47 -3 0 -409 0 -409 -47 -3 c-36
-2 -49 -7 -51 -20 -3 -16 8 -18 118 -18 110 0 121 2 118 18 -2 13 -15 18 -49
20 l-46 3 -5 382 c-3 210 -4 383 -3 384 1 2 73 -182 161 -407 118 -304 163
-410 175 -410 12 0 51 97 159 393 78 215 144 394 146 396 2 2 4 -163 4 -367
l0 -371 -47 -3 c-36 -2 -49 -7 -51 -20 -3 -17 11 -18 178 -18 167 0 181 1 178
17 -2 14 -15 19 -51 21 l-47 3 0 409 0 409 47 3 c36 2 49 7 51 21 3 15 -8 17
-130 17 l-133 0 -70 -193 c-38 -105 -92 -254 -120 -330 l-51 -138 -128 331
-129 330 -139 0 c-127 0 -139 -2 -136 -17z"/>
</g>
</svg>
